<?xml version="1.0" encoding="UTF-8" standalone="no"?>
<!-- Created with Inkscape (http://www.inkscape.org/) -->

<svg
   version="1.1"
   id="svg2"
   xml:space="preserve"
   width="568.00732"
   height="201.83324"
   viewBox="0 0 568.00732 201.83324"
   sodipodi:docname="spainn.svg"
   inkscape:version="1.1.2 (0a00cf5339, 2022-02-04)"
   xmlns:inkscape="http://www.inkscape.org/namespaces/inkscape"
   xmlns:sodipodi="http://sodipodi.sourceforge.net/DTD/sodipodi-0.dtd"
   xmlns="http://www.w3.org/2000/svg"
   xmlns:svg="http://www.w3.org/2000/svg"><defs
     id="defs6" /><sodipodi:namedview
     id="namedview4"
     pagecolor="#ffffff"
     bordercolor="#666666"
     borderopacity="1.0"
     inkscape:pageshadow="2"
     inkscape:pageopacity="0.0"
     inkscape:pagecheckerboard="0"
     showgrid="false"
     inkscape:zoom="2.4189829"
     inkscape:cx="284.21036"
     inkscape:cy="101.07554"
     inkscape:window-width="2560"
     inkscape:window-height="1532"
     inkscape:window-x="0"
     inkscape:window-y="0"
     inkscape:window-maximized="1"
     inkscape:current-layer="g8" /><g
     id="g8"
     inkscape:groupmode="layer"
     inkscape:label="spainn"
     transform="matrix(1.3333333,0,0,1.3333333,0,3.0458308e-6)"><g
       id="g10"><g
         id="g12"><path
           d="m 51.113,118.527 c 15.703,6.93 23.664,0.379 26.973,-7.16 C 81.895,102.684 83.66,91.746 57.977,79.883 36.574,69.996 25.406,57.426 23.75,45.516 23,40.121 0.949,27.812 0.605,26.93 -1.918,20.422 26.34,16.598 32.238,12.188 40.258,6.191 47.688,4.473 59.578,1.254 83.02,-5.098 120.77,28.699 120.367,32.258 114.793,35.746 105.422,36.328 98.551,35.719 92.543,29.34 86.227,23.91 78.922,20.777 l 2.863,3.895 8.516,11.598 c -8.125,7.109 -24.785,-1.704 -28.028,1.867 -8.293,9.136 -1.281,12.379 5.903,19.086 7.644,7.14 25.25,13.41 33.488,25.804 8.242,12.395 0.906,29.563 -1.234,33.832 -2.215,4.422 -17.883,19.243 -27.969,19.309 -10.082,0.07 -24.731,-2.316 -30.527,-5.672 -9.899,-7.508 -24.477,25.274 -36.09,19.813 6.551,-5.938 15.234,-20.036 18.304,-33.121 0.821,-13.083 -2.445,-21.75 -7.601,-33.106 18.379,6.211 21.687,22.711 34.566,34.445 z"
           style="fill:#cccccc;fill-opacity:1;fill-rule:nonzero;stroke:#000000;stroke-width:0.908996;stroke-linecap:butt;stroke-linejoin:miter;stroke-miterlimit:4;stroke-dasharray:none;stroke-opacity:1"
           id="path14" /></g><g
         id="g16"><path
           d="M 52.844,20.23 64.422,30.68"
           style="fill:none;stroke:#000000;stroke-width:0.343558;stroke-linecap:butt;stroke-linejoin:miter;stroke-miterlimit:4;stroke-dasharray:none;stroke-opacity:1"
           id="path18" /></g><g
         id="g20"><path
           d="M 50.688,22.07 62.27,32.52"
           style="fill:none;stroke:#000000;stroke-width:0.343558;stroke-linecap:butt;stroke-linejoin:miter;stroke-miterlimit:4;stroke-dasharray:none;stroke-opacity:1"
           id="path22" /></g><g
         id="g24"><path
           d="M 48.477,24.02 60.059,34.465"
           style="fill:none;stroke:#000000;stroke-width:0.343558;stroke-linecap:butt;stroke-linejoin:miter;stroke-miterlimit:4;stroke-dasharray:none;stroke-opacity:1"
           id="path26" /></g><g
         id="g28"><path
           d="m 82.195,24.652 1.407,0.114 -0.891,0.777 1.461,0.367 -0.801,0.512 1.379,0.516 -0.746,0.402 1.305,0.465 -0.774,0.343 1.242,0.29 -0.746,0.457 1.203,0.144 -0.812,0.613 1.23,0.028 -0.746,0.574 1.375,0.402 -0.547,0.516 h 0.887 l -0.258,0.469 0.832,0.316 -0.543,0.309 1.137,0.23 -0.574,0.285 0.898,0.301 -0.675,0.34"
           style="fill:none;stroke:#000000;stroke-width:0.255118;stroke-linecap:butt;stroke-linejoin:miter;stroke-miterlimit:4;stroke-dasharray:none;stroke-opacity:1"
           id="path30" /></g><g
         id="g32"><path
           d="m 94.016,31.516 -1.387,0.254 0.656,-0.981 -1.508,0.027 0.641,-0.703 -1.465,-0.14 0.617,-0.582 -1.386,-0.11 0.66,-0.535 -1.278,0.051 0.602,-0.637 -1.195,0.172 0.625,-0.801 -1.196,0.293 0.571,-0.75 -1.434,-0.031 0.395,-0.641 -0.86,0.231 0.129,-0.516 -0.887,-0.09 0.446,-0.441 -1.16,0.074 0.48,-0.426 -0.945,-0.054 0.566,-0.504"
           style="fill:none;stroke:#000000;stroke-width:0.255118;stroke-linecap:butt;stroke-linejoin:miter;stroke-miterlimit:4;stroke-dasharray:none;stroke-opacity:1"
           id="path34" /></g><g
         id="g36"><path
           d="m 103.844,24.391 c 0,0.586 -0.449,1.058 -1.004,1.058 -0.559,0 -1.008,-0.472 -1.008,-1.058 0,-0.59 0.449,-1.063 1.008,-1.063 0.555,0 1.004,0.473 1.004,1.063 z"
           style="fill:#000000;fill-opacity:1;fill-rule:evenodd;stroke:#000000;stroke-width:0.171779;stroke-linecap:round;stroke-linejoin:miter;stroke-miterlimit:4;stroke-dasharray:none;stroke-opacity:1"
           id="path38" /></g><g
         id="g40"><path
           d="m 46.188,35.016 c -8.879,7.644 1.554,27.191 -2.254,35.757 8.203,-5.511 6.5,-22.632 12.937,-31.429"
           style="fill:none;stroke:#000000;stroke-width:0.908996;stroke-linecap:butt;stroke-linejoin:miter;stroke-miterlimit:4;stroke-dasharray:none;stroke-opacity:1"
           id="path42" /></g><path
         d="m 147.09,42.828 h -40.375 v 3.234 h 12.297 v 91 h -12.297 v 3.235 h 39.156 v -3.235 H 132.637 V 95.078 h 12.422 c 10.531,0 15.796,-1.219 20.39,-3.781 8.235,-4.594 12.953,-12.563 12.953,-22.813 0,-10.265 -5,-25.656 -31.312,-25.656 z M 132.637,92.234 V 54.578 c 0,-8.234 0.547,-8.516 6.484,-8.516 h 7.281 c 11.625,0 17.016,6.75 17.016,22.954 0,15.656 -5.672,23.218 -17.406,23.218 z"
         style="fill:#ffcc00;fill-opacity:1;fill-rule:nonzero;stroke:none"
         id="path44" /><path
         d="m 183.906,98.859 7.953,20.25 h -15.921 z m 4.578,-13.234 h -4.718 l -21.875,52.234 h -5.125 v 2.438 h 22.406 v -2.438 h -10.656 l 5.937,-15.515 h 18.766 l 6.078,15.515 h -9.047 v 2.438 h 26.047 v -2.438 h -5.391 z"
         style="fill:#ffcc00;fill-opacity:1;fill-rule:nonzero;stroke:none"
         id="path46" /><path
         d="m 235.004,88.859 h 7.562 v -2.562 h -25.515 v 2.562 h 7.703 v 48.875 h -7.703 v 2.563 h 25.515 v -2.563 h -7.562 z"
         style="fill:#ffcc00;fill-opacity:1;fill-rule:nonzero;stroke:none"
         id="path48" /><path
         d="m 269.312,42.828 h -24.171 v 3.234 h 13.234 v 91 h -13.094 v 3.235 h 33.203 v -3.235 H 265.25 V 59.156 l 50.625,81.141 h 5.406 V 66.594 c 0,-18.094 4.313,-20.532 13.235,-20.532 v -3.234 h -33.219 v 3.234 h 13.094 v 70.063 z"
         style="fill:#ff0000;fill-opacity:1;fill-rule:nonzero;stroke:none"
         id="path50" /><path
         d="m 360.809,42.828 h -24.172 v 3.234 h 13.234 v 91 h -13.094 v 3.235 h 33.203 v -3.235 H 356.746 V 59.156 l 50.625,81.141 h 5.406 V 66.594 c 0,-18.094 4.313,-20.532 13.235,-20.532 v -3.234 h -33.219 v 3.234 h 13.094 v 70.063 z"
         style="fill:#ff0000;fill-opacity:1;fill-rule:nonzero;stroke:none"
         id="path52" /></g></g></svg>
